<mxfile host="65bd71144e">
    <diagram id="n-HU4fG1coUEZPLs6XPE" name="Page-1">
        <mxGraphModel dx="1350" dy="689" grid="1" gridSize="10" guides="1" tooltips="1" connect="1" arrows="1" fold="1" page="1" pageScale="1" pageWidth="1169" pageHeight="827" math="0" shadow="0">
            <root>
                <mxCell id="0"/>
                <mxCell id="1" parent="0"/>
                <mxCell id="7" value="&lt;span style=&quot;font-weight: 400;&quot;&gt;«interface»&lt;/span&gt;&lt;br style=&quot;font-weight: 400;&quot;&gt;&lt;b&gt;IVehicleFactory&lt;/b&gt;" style="swimlane;fontStyle=1;align=center;verticalAlign=middle;childLayout=stackLayout;horizontal=1;startSize=40;horizontalStack=0;resizeParent=1;resizeParentMax=0;resizeLast=0;collapsible=0;marginBottom=0;html=1;fillColor=#eeeeee;strokeColor=#36393D;fontColor=#000000;" parent="1" vertex="1">
                    <mxGeometry x="232" y="50" width="155" height="65" as="geometry"/>
                </mxCell>
                <mxCell id="8" value="CreateVehicle(): IVehicle" style="text;html=1;align=center;verticalAlign=middle;spacingLeft=4;spacingRight=4;overflow=hidden;rotatable=0;points=[[0,0.5],[1,0.5]];portConstraint=eastwest;fillColor=#eeeeee;strokeColor=#36393D;fontColor=#000000;" parent="7" vertex="1">
                    <mxGeometry y="40" width="155" height="25" as="geometry"/>
                </mxCell>
                <mxCell id="25" value="Program" style="swimlane;fontStyle=0;align=center;verticalAlign=top;childLayout=stackLayout;horizontal=1;startSize=30;horizontalStack=0;resizeParent=1;resizeParentMax=0;resizeLast=0;collapsible=0;marginBottom=0;html=1;swimlaneFillColor=none;fillColor=#eeeeee;strokeColor=#36393D;fontColor=#000000;" parent="1" vertex="1">
                    <mxGeometry x="50" y="60" width="110" height="38" as="geometry"/>
                </mxCell>
                <mxCell id="30" value="" style="line;strokeWidth=1;align=left;verticalAlign=middle;spacingTop=-1;spacingLeft=3;spacingRight=3;rotatable=0;labelPosition=right;points=[];portConstraint=eastwest;fillColor=#eeeeee;strokeColor=#36393D;fontColor=#000000;" parent="25" vertex="1">
                    <mxGeometry y="30" width="110" height="8" as="geometry"/>
                </mxCell>
                <mxCell id="36" value="" style="endArrow=open;startArrow=none;endFill=0;startFill=0;endSize=8;html=1;verticalAlign=bottom;labelBackgroundColor=none;strokeWidth=2;sketch=0;exitX=1;exitY=0.5;exitDx=0;exitDy=0;entryX=-0.008;entryY=0.431;entryDx=0;entryDy=0;entryPerimeter=0;fillColor=#eeeeee;strokeColor=#E2EEFF;fontColor=#000000;" parent="1" source="25" target="7" edge="1">
                    <mxGeometry width="160" relative="1" as="geometry">
                        <mxPoint x="150" y="110" as="sourcePoint"/>
                        <mxPoint x="310" y="110" as="targetPoint"/>
                    </mxGeometry>
                </mxCell>
                <mxCell id="37" value="CarFactory" style="swimlane;fontStyle=0;align=center;verticalAlign=top;childLayout=stackLayout;horizontal=1;startSize=30;horizontalStack=0;resizeParent=1;resizeParentMax=0;resizeLast=0;collapsible=0;marginBottom=0;html=1;fillColor=#eeeeee;strokeColor=#36393D;fontColor=#000000;" parent="1" vertex="1">
                    <mxGeometry x="130" y="170" width="155" height="50" as="geometry"/>
                </mxCell>
                <mxCell id="43" value="CreateVehicle(): IVehicle" style="text;html=1;align=center;verticalAlign=middle;spacingLeft=4;spacingRight=4;overflow=hidden;rotatable=0;points=[[0,0.5],[1,0.5]];portConstraint=eastwest;fillColor=#eeeeee;strokeColor=#36393D;fontColor=#000000;" parent="37" vertex="1">
                    <mxGeometry y="30" width="155" height="20" as="geometry"/>
                </mxCell>
                <mxCell id="76" value="&lt;span style=&quot;font-weight: 400;&quot;&gt;«interface»&lt;/span&gt;&lt;br style=&quot;font-weight: 400;&quot;&gt;&lt;b&gt;IVehicle&lt;/b&gt;" style="swimlane;fontStyle=1;align=center;verticalAlign=middle;childLayout=stackLayout;horizontal=1;startSize=40;horizontalStack=0;resizeParent=1;resizeParentMax=0;resizeLast=0;collapsible=0;marginBottom=0;html=1;fillColor=#eeeeee;strokeColor=#36393D;fontColor=#000000;" parent="1" vertex="1">
                    <mxGeometry x="600" y="50" width="160" height="65" as="geometry"/>
                </mxCell>
                <mxCell id="77" value="Display(): void" style="text;html=1;align=center;verticalAlign=middle;spacingLeft=4;spacingRight=4;overflow=hidden;rotatable=0;points=[[0,0.5],[1,0.5]];portConstraint=eastwest;fillColor=#eeeeee;strokeColor=#36393D;fontColor=#000000;" parent="76" vertex="1">
                    <mxGeometry y="40" width="160" height="25" as="geometry"/>
                </mxCell>
                <mxCell id="79" value="OffroadCarFactory" style="swimlane;fontStyle=0;align=center;verticalAlign=top;childLayout=stackLayout;horizontal=1;startSize=30;horizontalStack=0;resizeParent=1;resizeParentMax=0;resizeLast=0;collapsible=0;marginBottom=0;html=1;fillColor=#eeeeee;strokeColor=#36393D;fontColor=#000000;" parent="1" vertex="1">
                    <mxGeometry x="220" y="230" width="155" height="50" as="geometry"/>
                </mxCell>
                <mxCell id="80" value="CreateVehicle(): IVehicle" style="text;html=1;align=center;verticalAlign=middle;spacingLeft=4;spacingRight=4;overflow=hidden;rotatable=0;points=[[0,0.5],[1,0.5]];portConstraint=eastwest;fillColor=#eeeeee;strokeColor=#36393D;fontColor=#000000;" parent="79" vertex="1">
                    <mxGeometry y="30" width="155" height="20" as="geometry"/>
                </mxCell>
                <mxCell id="81" value="TruckFactory" style="swimlane;fontStyle=0;align=center;verticalAlign=top;childLayout=stackLayout;horizontal=1;startSize=30;horizontalStack=0;resizeParent=1;resizeParentMax=0;resizeLast=0;collapsible=0;marginBottom=0;html=1;fillColor=#eeeeee;strokeColor=#36393D;fontColor=#000000;" parent="1" vertex="1">
                    <mxGeometry x="320" y="170" width="155" height="50" as="geometry"/>
                </mxCell>
                <mxCell id="82" value="CreateVehicle(): IVehicle" style="text;html=1;align=center;verticalAlign=middle;spacingLeft=4;spacingRight=4;overflow=hidden;rotatable=0;points=[[0,0.5],[1,0.5]];portConstraint=eastwest;fillColor=#eeeeee;strokeColor=#36393D;fontColor=#000000;" parent="81" vertex="1">
                    <mxGeometry y="30" width="155" height="20" as="geometry"/>
                </mxCell>
                <mxCell id="83" value="" style="endArrow=block;startArrow=none;endFill=0;startFill=0;endSize=8;html=1;verticalAlign=bottom;dashed=1;labelBackgroundColor=none;strokeWidth=2;entryX=0.226;entryY=1.08;entryDx=0;entryDy=0;entryPerimeter=0;exitX=0.75;exitY=0;exitDx=0;exitDy=0;fillColor=#eeeeee;strokeColor=#E2EEFF;fontColor=#000000;" parent="1" source="37" target="8" edge="1">
                    <mxGeometry width="160" relative="1" as="geometry">
                        <mxPoint x="300" y="310" as="sourcePoint"/>
                        <mxPoint x="340" y="170" as="targetPoint"/>
                    </mxGeometry>
                </mxCell>
                <mxCell id="84" value="" style="endArrow=open;startArrow=none;endFill=0;startFill=0;endSize=8;html=1;verticalAlign=bottom;labelBackgroundColor=none;strokeWidth=2;entryX=0;entryY=0.5;entryDx=0;entryDy=0;exitX=1;exitY=0.5;exitDx=0;exitDy=0;fillColor=#eeeeee;strokeColor=#E2EEFF;fontColor=#000000;" parent="1" source="7" target="76" edge="1">
                    <mxGeometry width="160" relative="1" as="geometry">
                        <mxPoint x="300" y="310" as="sourcePoint"/>
                        <mxPoint x="460" y="310" as="targetPoint"/>
                    </mxGeometry>
                </mxCell>
                <mxCell id="85" value="" style="endArrow=block;startArrow=none;endFill=0;startFill=0;endSize=8;html=1;verticalAlign=bottom;dashed=1;labelBackgroundColor=none;strokeWidth=2;entryX=0.794;entryY=1.12;entryDx=0;entryDy=0;entryPerimeter=0;exitX=0.25;exitY=0;exitDx=0;exitDy=0;fillColor=#eeeeee;strokeColor=#E2EEFF;fontColor=#000000;" parent="1" source="81" target="8" edge="1">
                    <mxGeometry width="160" relative="1" as="geometry">
                        <mxPoint x="226.25" y="180" as="sourcePoint"/>
                        <mxPoint x="298.01" y="129" as="targetPoint"/>
                    </mxGeometry>
                </mxCell>
                <mxCell id="86" value="" style="endArrow=block;startArrow=none;endFill=0;startFill=0;endSize=8;html=1;verticalAlign=bottom;dashed=1;labelBackgroundColor=none;strokeWidth=2;entryX=0.419;entryY=1.12;entryDx=0;entryDy=0;entryPerimeter=0;exitX=0.5;exitY=0;exitDx=0;exitDy=0;fillColor=#eeeeee;strokeColor=#E2EEFF;fontColor=#000000;" parent="1" source="79" target="8" edge="1">
                    <mxGeometry width="160" relative="1" as="geometry">
                        <mxPoint x="256.25" y="180" as="sourcePoint"/>
                        <mxPoint x="280.03" y="127" as="targetPoint"/>
                    </mxGeometry>
                </mxCell>
                <mxCell id="87" value="Truck" style="swimlane;fontStyle=0;align=center;verticalAlign=top;childLayout=stackLayout;horizontal=1;startSize=30;horizontalStack=0;resizeParent=1;resizeParentMax=0;resizeLast=0;collapsible=0;marginBottom=0;html=1;fillColor=#eeeeee;strokeColor=#36393D;fontColor=#000000;" parent="1" vertex="1">
                    <mxGeometry x="540" y="163.5" width="100" height="55" as="geometry"/>
                </mxCell>
                <mxCell id="90" value="Display(): void" style="text;html=1;align=center;verticalAlign=middle;spacingLeft=4;spacingRight=4;overflow=hidden;rotatable=0;points=[[0,0.5],[1,0.5]];portConstraint=eastwest;fillColor=#eeeeee;strokeColor=#36393D;fontColor=#000000;" parent="87" vertex="1">
                    <mxGeometry y="30" width="100" height="25" as="geometry"/>
                </mxCell>
                <mxCell id="89" value="" style="endArrow=block;startArrow=none;endFill=0;startFill=0;endSize=8;html=1;verticalAlign=bottom;dashed=1;labelBackgroundColor=none;strokeWidth=2;entryX=0.206;entryY=1.16;entryDx=0;entryDy=0;entryPerimeter=0;exitX=0.75;exitY=0;exitDx=0;exitDy=0;fillColor=#eeeeee;strokeColor=#E2EEFF;fontColor=#000000;" parent="1" source="87" target="77" edge="1">
                    <mxGeometry width="160" relative="1" as="geometry">
                        <mxPoint x="406.25" y="285.5" as="sourcePoint"/>
                        <mxPoint x="535.0699999999999" y="223.5" as="targetPoint"/>
                    </mxGeometry>
                </mxCell>
                <mxCell id="92" value="Car" style="swimlane;fontStyle=0;align=center;verticalAlign=top;childLayout=stackLayout;horizontal=1;startSize=30;horizontalStack=0;resizeParent=1;resizeParentMax=0;resizeLast=0;collapsible=0;marginBottom=0;html=1;fillColor=#eeeeee;strokeColor=#36393D;fontColor=#000000;" parent="1" vertex="1">
                    <mxGeometry x="730" y="163.5" width="100" height="55" as="geometry"/>
                </mxCell>
                <mxCell id="93" value="Display(): void" style="text;html=1;align=center;verticalAlign=middle;spacingLeft=4;spacingRight=4;overflow=hidden;rotatable=0;points=[[0,0.5],[1,0.5]];portConstraint=eastwest;fillColor=#eeeeee;strokeColor=#36393D;fontColor=#000000;" parent="92" vertex="1">
                    <mxGeometry y="30" width="100" height="25" as="geometry"/>
                </mxCell>
                <mxCell id="94" value="" style="endArrow=block;startArrow=none;endFill=0;startFill=0;endSize=8;html=1;verticalAlign=bottom;dashed=1;labelBackgroundColor=none;strokeWidth=2;entryX=0.788;entryY=1.08;entryDx=0;entryDy=0;exitX=0.25;exitY=0;exitDx=0;exitDy=0;entryPerimeter=0;fillColor=#eeeeee;strokeColor=#36393D;fontColor=#000000;" parent="1" source="92" target="77" edge="1">
                    <mxGeometry width="160" relative="1" as="geometry">
                        <mxPoint x="589.25" y="223" as="sourcePoint"/>
                        <mxPoint x="730" y="132.5" as="targetPoint"/>
                    </mxGeometry>
                </mxCell>
                <mxCell id="95" value="OffroadaCar" style="swimlane;fontStyle=0;align=center;verticalAlign=top;childLayout=stackLayout;horizontal=1;startSize=30;horizontalStack=0;resizeParent=1;resizeParentMax=0;resizeLast=0;collapsible=0;marginBottom=0;html=1;fillColor=#eeeeee;strokeColor=#36393D;fontColor=#000000;" parent="1" vertex="1">
                    <mxGeometry x="630" y="233.5" width="100" height="55" as="geometry"/>
                </mxCell>
                <mxCell id="96" value="Display(): void" style="text;html=1;align=center;verticalAlign=middle;spacingLeft=4;spacingRight=4;overflow=hidden;rotatable=0;points=[[0,0.5],[1,0.5]];portConstraint=eastwest;fillColor=#eeeeee;strokeColor=#36393D;fontColor=#000000;" parent="95" vertex="1">
                    <mxGeometry y="30" width="100" height="25" as="geometry"/>
                </mxCell>
                <mxCell id="97" value="" style="endArrow=block;startArrow=none;endFill=0;startFill=0;endSize=8;html=1;verticalAlign=bottom;dashed=1;labelBackgroundColor=none;strokeWidth=2;entryX=0.463;entryY=1.04;entryDx=0;entryDy=0;entryPerimeter=0;exitX=0.5;exitY=0;exitDx=0;exitDy=0;fillColor=#eeeeee;strokeColor=#36393D;fontColor=#000000;" parent="1" source="95" target="77" edge="1">
                    <mxGeometry width="160" relative="1" as="geometry">
                        <mxPoint x="589.25" y="296.5" as="sourcePoint"/>
                        <mxPoint x="775.96" y="133.5" as="targetPoint"/>
                    </mxGeometry>
                </mxCell>
                <mxCell id="98" value="" style="endArrow=block;startArrow=none;endFill=0;startFill=0;endSize=8;html=1;verticalAlign=bottom;dashed=1;labelBackgroundColor=none;strokeWidth=2;entryX=0.463;entryY=1.04;entryDx=0;entryDy=0;entryPerimeter=0;exitX=0.5;exitY=0;exitDx=0;exitDy=0;fillColor=#eeeeee;strokeColor=#E2EEFF;fontColor=#000000;" edge="1" parent="1">
                    <mxGeometry width="160" relative="1" as="geometry">
                        <mxPoint x="680" y="233.5" as="sourcePoint"/>
                        <mxPoint x="674.0799999999999" y="116" as="targetPoint"/>
                    </mxGeometry>
                </mxCell>
                <mxCell id="99" value="" style="endArrow=block;startArrow=none;endFill=0;startFill=0;endSize=8;html=1;verticalAlign=bottom;dashed=1;labelBackgroundColor=none;strokeWidth=2;entryX=0.788;entryY=1.08;entryDx=0;entryDy=0;exitX=0.25;exitY=0;exitDx=0;exitDy=0;entryPerimeter=0;fillColor=#eeeeee;strokeColor=#E2EEFF;fontColor=#000000;" edge="1" parent="1">
                    <mxGeometry width="160" relative="1" as="geometry">
                        <mxPoint x="755" y="163.5" as="sourcePoint"/>
                        <mxPoint x="726.0799999999999" y="117" as="targetPoint"/>
                    </mxGeometry>
                </mxCell>
            </root>
        </mxGraphModel>
    </diagram>
</mxfile>